<svg width="259" height="66" viewBox="0 0 259 66" fill="none" xmlns="http://www.w3.org/2000/svg">
<g clip-path="url(#clip0_47_379)">
<mask id="mask0_47_379" style="mask-type:luminance" maskUnits="userSpaceOnUse" x="0" y="0" width="259" height="66">
<path d="M258.638 0H0.361328V66H258.638V0Z" fill="white"/>
</mask>
<g mask="url(#mask0_47_379)">
<path d="M96.3792 8.50053L88.5448 29.7178H104.483L96.6483 8.50053H96.3792ZM74.9502 48.1112L93.0317 1.07587H99.9965L118.077 48.1112C113.982 48.1112 110.329 45.5826 108.957 41.7972L106.626 35.3668H86.4685L84.0998 41.8071C82.7086 45.5904 79.0493 48.1112 74.9502 48.1112Z" fill="white"/>
<path d="M151.428 48.1122H145.535V43.6448H145.265C144.329 45.2209 142.89 46.5346 140.946 47.5856C139.005 48.6366 136.984 49.1632 134.886 49.1632C130.869 49.1632 127.776 48.0362 125.612 45.7795C123.447 43.5248 122.364 40.3171 122.364 36.1562V15.924H128.525V35.7617C128.658 41.0175 131.358 43.6448 136.627 43.6448C139.083 43.6448 141.136 42.6718 142.789 40.7216C144.439 38.7728 145.265 36.4422 145.265 33.7256V15.924H151.428V48.1122Z" fill="white"/>
<path d="M166.762 48.1125H160.6V15.9244H166.493V21.1788H166.762C167.386 19.4707 168.671 18.0151 170.612 16.8115C172.553 15.6065 174.462 15.0032 176.338 15.0032C178.122 15.0032 179.64 15.2679 180.892 15.7924L179.016 21.6394C178.256 21.3328 177.05 21.1788 175.401 21.1788C173.078 21.1788 171.057 22.0979 169.34 23.9381C167.619 25.7783 166.762 27.9243 166.762 30.3756V48.1125Z" fill="white"/>
<path d="M193.281 48.1112H187.119V15.923H193.281V48.1112ZM194.553 4.82013C194.553 6.00316 194.128 7.01091 193.281 7.84336C192.432 8.6744 191.405 9.09098 190.199 9.09098C188.994 9.09098 187.966 8.6744 187.119 7.84336C186.271 7.01091 185.847 6.00316 185.847 4.82013C185.847 3.63852 186.271 2.63149 187.119 1.79833C187.966 0.9673 188.994 0.55072 190.199 0.55072C191.405 0.55072 192.432 0.9673 193.281 1.79833C194.128 2.63149 194.553 3.63852 194.553 4.82013Z" fill="white"/>
<path d="M218.123 0.552094C220.354 0.552094 222.185 0.924671 223.614 1.66912L221.94 6.98957C220.868 6.46512 219.664 6.20112 218.325 6.20112C216.806 6.20112 215.567 6.71707 214.607 7.74466C213.647 8.77369 213.166 10.1434 213.166 11.8516V15.9244H221.74V21.4407H213.166V48.1125H207.006V21.4407H200.846V15.9244H207.006V11.259C207.006 8.06259 208.045 5.48009 210.121 3.5079C212.197 1.53712 214.863 0.552094 218.123 0.552094Z" fill="white"/>
<path d="M258.638 15.9245L238.079 63.7823C234.911 63.7823 232.79 60.5852 234.075 57.7443L239.351 46.0758L228.52 21.9376C227.25 19.1045 229.365 15.9245 232.52 15.9245L242.298 39.0458H242.43L249.435 22.017C250.949 18.3352 254.591 15.9245 258.638 15.9245Z" fill="white"/>
</g>
<path d="M77.2041 56.3798V55.5924H82.8081V56.3798H80.4582V62.9215H79.5539V56.3798H77.2041Z" fill="white"/>
<path d="M89.6982 62.9215V55.5925H94.2076V56.3798H90.6033V58.8562H93.9739V59.6435H90.6033V62.1342H94.2662V62.9215H89.6982ZM107.951 57.8828H107.045C106.992 57.6275 106.899 57.4033 106.765 57.21C106.633 57.0168 106.472 56.8545 106.283 56.7233C106.096 56.5897 105.888 56.4896 105.659 56.4227C105.431 56.3559 105.192 56.3225 104.945 56.3225C104.492 56.3225 104.082 56.4346 103.715 56.6589C103.35 56.8831 103.059 57.2136 102.843 57.6502C102.629 58.0868 102.522 58.6223 102.522 59.257C102.522 59.8916 102.629 60.4272 102.843 60.8638C103.059 61.3004 103.35 61.6308 103.715 61.8551C104.082 62.0793 104.492 62.1915 104.945 62.1915C105.192 62.1915 105.431 62.1581 105.659 62.0913C105.888 62.0245 106.096 61.9255 106.283 61.7943C106.472 61.6606 106.633 61.4972 106.765 61.3039C106.899 61.1083 106.992 60.8841 107.045 60.6312H107.951C107.882 61.0057 107.758 61.341 107.578 61.6368C107.399 61.9326 107.174 62.1843 106.907 62.3919C106.64 62.597 106.339 62.7533 106.006 62.8607C105.675 62.9681 105.321 63.0217 104.945 63.0217C104.307 63.0217 103.74 62.8691 103.244 62.5636C102.748 62.2582 102.357 61.8241 102.073 61.261C101.789 60.698 101.646 60.03 101.646 59.257C101.646 58.484 101.789 57.816 102.073 57.253C102.357 56.6899 102.748 56.2557 103.244 55.9503C103.74 55.645 104.307 55.4922 104.945 55.4922C105.321 55.4922 105.675 55.546 106.006 55.6533C106.339 55.7606 106.64 55.9181 106.907 56.1257C107.174 56.3309 107.399 56.5814 107.578 56.8772C107.758 57.1706 107.882 57.5059 107.951 57.8828Z" fill="white"/>
<path d="M115.686 62.9215V55.5924H116.59V58.8562H120.574V55.5924H121.479V62.9215H120.574V59.6435H116.59V62.9215H115.686Z" fill="white"/>
<path d="M135.245 55.5925V62.9215H134.369L130.298 57.1671H130.225V62.9215H129.32V55.5925H130.196L134.282 61.3612H134.355V55.5925H135.245ZM149.94 59.257C149.94 60.03 149.799 60.698 149.514 61.261C149.229 61.8241 148.839 62.2582 148.343 62.5636C147.847 62.8691 147.28 63.0217 146.643 63.0217C146.006 63.0217 145.439 62.8691 144.943 62.5636C144.446 62.2582 144.056 61.8241 143.771 61.261C143.487 60.698 143.345 60.03 143.345 59.257C143.345 58.484 143.487 57.816 143.771 57.253C144.056 56.6899 144.446 56.2557 144.943 55.9503C145.439 55.645 146.006 55.4922 146.643 55.4922C147.28 55.4922 147.847 55.645 148.343 55.9503C148.839 56.2557 149.229 56.6899 149.514 57.253C149.799 57.816 149.94 58.484 149.94 59.257ZM149.065 59.257C149.065 58.6223 148.957 58.0868 148.74 57.6502C148.526 57.2136 148.236 56.8831 147.868 56.6589C147.504 56.4346 147.095 56.3225 146.643 56.3225C146.19 56.3225 145.781 56.4346 145.413 56.6589C145.048 56.8831 144.758 57.2136 144.541 57.6502C144.327 58.0868 144.22 58.6223 144.22 59.257C144.22 59.8916 144.327 60.4272 144.541 60.8638C144.758 61.3004 145.048 61.6308 145.413 61.8551C145.781 62.0793 146.19 62.1915 146.643 62.1915C147.095 62.1915 147.504 62.0793 147.868 61.8551C148.236 61.6308 148.526 61.3004 148.74 60.8638C148.957 60.4272 149.065 59.8916 149.065 59.257ZM158.043 62.9215V55.5925H158.948V62.1342H162.421V62.9215H158.043ZM176.707 59.257C176.707 60.03 176.565 60.698 176.28 61.261C175.996 61.8241 175.605 62.2582 175.109 62.5636C174.613 62.8691 174.046 63.0217 173.409 63.0217C172.772 63.0217 172.205 62.8691 171.709 62.5636C171.213 62.2582 170.823 61.8241 170.538 61.261C170.253 60.698 170.111 60.03 170.111 59.257C170.111 58.484 170.253 57.816 170.538 57.253C170.823 56.6899 171.213 56.2557 171.709 55.9503C172.205 55.645 172.772 55.4922 173.409 55.4922C174.046 55.4922 174.613 55.645 175.109 55.9503C175.605 56.2557 175.996 56.6899 176.28 57.253C176.565 57.816 176.707 58.484 176.707 59.257ZM175.832 59.257C175.832 58.6223 175.723 58.0868 175.507 57.6502C175.293 57.2136 175.002 56.8831 174.635 56.6589C174.27 56.4346 173.862 56.3225 173.409 56.3225C172.957 56.3225 172.547 56.4346 172.18 56.6589C171.815 56.8831 171.524 57.2136 171.308 57.6502C171.094 58.0868 170.987 58.6223 170.987 59.257C170.987 59.8916 171.094 60.4272 171.308 60.8638C171.524 61.3004 171.815 61.6308 172.18 61.8551C172.547 62.0793 172.957 62.1915 173.409 62.1915C173.862 62.1915 174.27 62.0793 174.635 61.8551C175.002 61.6308 175.293 61.3004 175.507 60.8638C175.723 60.4272 175.832 59.8916 175.832 59.257ZM189.917 57.8828C189.837 57.6419 189.731 57.4259 189.599 57.2351C189.471 57.0418 189.316 56.8772 189.136 56.7412C188.959 56.6052 188.757 56.5015 188.531 56.4299C188.304 56.3583 188.056 56.3225 187.786 56.3225C187.344 56.3225 186.941 56.4346 186.579 56.6589C186.216 56.8831 185.928 57.2136 185.714 57.6502C185.5 58.0868 185.393 58.6223 185.393 59.257C185.393 59.8916 185.502 60.4272 185.718 60.8638C185.934 61.3004 186.227 61.6308 186.597 61.8551C186.967 62.0793 187.383 62.1915 187.845 62.1915C188.273 62.1915 188.65 62.102 188.976 61.9231C189.304 61.7417 189.56 61.4865 189.742 61.1572C189.927 60.8256 190.019 60.4356 190.019 59.9871L190.297 60.0443H188.049V59.257H190.895V60.0443C190.895 60.6479 190.763 61.1728 190.501 61.6189C190.24 62.065 189.881 62.411 189.421 62.6567C188.963 62.9001 188.438 63.0217 187.845 63.0217C187.184 63.0217 186.602 62.8691 186.101 62.5636C185.602 62.2582 185.214 61.8241 184.934 61.261C184.657 60.698 184.518 60.03 184.518 59.257C184.518 58.6773 184.597 58.1559 184.755 57.6932C184.916 57.2279 185.141 56.8319 185.434 56.505C185.725 56.1781 186.071 55.9277 186.47 55.7535C186.868 55.5793 187.307 55.4922 187.786 55.4922C188.181 55.4922 188.547 55.5507 188.888 55.6676C189.231 55.7821 189.536 55.9456 189.804 56.1579C190.074 56.3678 190.299 56.6196 190.479 56.913C190.658 57.2041 190.783 57.5273 190.851 57.8828H189.917Z" fill="white"/>
<path d="M199.967 55.5924V62.9215H199.062V55.5924H199.967ZM207.881 62.9215V55.5924H212.389V56.3798H208.785V58.8562H212.156V59.6435H208.785V62.1342H212.448V62.9215H207.881Z" fill="white"/>
<path d="M224.109 57.4248C224.065 57.0621 223.887 56.7806 223.576 56.5802C223.265 56.3798 222.883 56.2796 222.431 56.2796C222.1 56.2796 221.81 56.3321 221.563 56.437C221.317 56.542 221.124 56.6864 220.986 56.87C220.85 57.0538 220.782 57.2625 220.782 57.4963C220.782 57.692 220.829 57.8602 220.924 58.0009C221.022 58.1393 221.145 58.2549 221.296 58.348C221.447 58.4387 221.605 58.5138 221.771 58.5735C221.936 58.6307 222.088 58.6773 222.226 58.713L222.985 58.9135C223.18 58.9636 223.396 59.0328 223.635 59.121C223.876 59.2093 224.105 59.3298 224.324 59.4825C224.546 59.6327 224.728 59.826 224.871 60.0622C225.015 60.2984 225.087 60.5882 225.087 60.9318C225.087 61.3279 224.981 61.6857 224.769 62.0054C224.56 62.3251 224.253 62.5792 223.85 62.7676C223.449 62.9561 222.961 63.0503 222.387 63.0503C221.852 63.0503 221.389 62.9656 220.997 62.7962C220.608 62.6268 220.302 62.3907 220.078 62.0877C219.856 61.7847 219.731 61.4328 219.702 61.032H220.636C220.66 61.3088 220.755 61.5378 220.92 61.7191C221.088 61.898 221.3 62.0316 221.555 62.1199C221.813 62.2058 222.09 62.2487 222.387 62.2487C222.733 62.2487 223.042 62.1939 223.317 62.0841C223.592 61.972 223.81 61.8169 223.971 61.6189C224.131 61.4185 224.211 61.1847 224.211 60.9174C224.211 60.6741 224.142 60.4761 224.003 60.3234C223.864 60.1707 223.682 60.0467 223.456 59.9512C223.23 59.8558 222.985 59.7723 222.723 59.7008L221.803 59.4431C221.22 59.2784 220.758 59.0435 220.417 58.7381C220.077 58.4327 219.906 58.0331 219.906 57.5392C219.906 57.1289 220.02 56.771 220.245 56.4656C220.474 56.1579 220.781 55.9193 221.165 55.7499C221.551 55.5782 221.983 55.4922 222.46 55.4922C222.942 55.4922 223.369 55.577 223.744 55.7464C224.119 55.9134 224.416 56.1424 224.634 56.4335C224.855 56.7245 224.973 57.055 224.985 57.4248H224.109Z" fill="white"/>
<mask id="mask1_47_379" style="mask-type:luminance" maskUnits="userSpaceOnUse" x="12" y="0" width="28" height="18">
<path d="M12.0098 7.09677L31.2539 17.9548C33.3519 14.8323 36.3181 12.3484 39.6461 10.5032L22.7894 0.993541C21.6318 0.283867 20.4019 0 19.1721 0C15.4824 0 12.0098 2.98064 12.0098 7.09677Z" fill="white"/>
</mask>
<g mask="url(#mask1_47_379)">
<path d="M-87.6836 -139.097V458.374H342.977L342.978 -139.096L-87.6836 -139.097Z" fill="url(#paint0_linear_47_379)"/>
</g>
<mask id="mask2_47_379" style="mask-type:luminance" maskUnits="userSpaceOnUse" x="32" y="11" width="27" height="42">
<path d="M32.5557 18.6642L55.7065 31.7933L50.7146 34.632C50.7146 34.632 42.1054 39.8126 33.0621 45.2062C35.2325 48.1868 38.1987 50.5288 41.599 52.09L56.9364 43.361C58.1663 39.8836 58.8174 36.1223 58.8174 32.1481C58.8174 27.961 58.0216 23.8449 56.647 20.1546L41.2372 11.4255C37.7646 13.0578 34.7984 15.6126 32.5557 18.6642Z" fill="white"/>
</mask>
<g mask="url(#mask2_47_379)">
<path d="M-87.6836 458.374H342.977V-139.096H-87.6836V458.374Z" fill="url(#paint1_linear_47_379)"/>
</g>
<mask id="mask3_47_379" style="mask-type:luminance" maskUnits="userSpaceOnUse" x="0" y="13" width="29" height="37">
<path d="M0 18.7358L23.1508 31.7939L18.1589 34.6326C18.1589 34.6326 9.54972 39.8132 0.506428 45.2068L0.578773 45.2777C4.12374 49.9616 10.7796 51.1681 15.9162 48.2584L28.7215 40.9487C27.564 38.11 26.9128 35.1294 26.9128 31.8648C26.9128 28.6713 27.564 25.5487 28.7215 22.781L15.6268 15.3294C13.7458 14.2648 11.7201 13.7681 9.69441 13.7681C6.00476 13.7681 2.31508 15.5423 0 18.7358Z" fill="white"/>
</mask>
<g mask="url(#mask3_47_379)">
<path d="M-87.6838 -139.097L-87.6846 458.374H342.977V-139.096L-87.6838 -139.097Z" fill="url(#paint2_linear_47_379)"/>
</g>
<mask id="mask4_47_379" style="mask-type:luminance" maskUnits="userSpaceOnUse" x="12" y="45" width="29" height="20">
<path d="M12.1543 57.7682C12.1543 62.665 17.6526 65.7876 21.9934 63.3037L40.0076 53.0134C36.7521 51.3811 33.8582 48.9682 31.7602 45.9875C22.4998 51.523 13.1671 57.1295 12.1543 57.7682Z" fill="white"/>
</mask>
<g mask="url(#mask4_47_379)">
<path d="M-87.6838 -139.097L-87.6846 458.374H342.977V-139.096L-87.6838 -139.097Z" fill="url(#paint3_linear_47_379)"/>
</g>
</g>
<defs>
<linearGradient id="paint0_linear_47_379" x1="25.8184" y1="0.0119488" x2="25.8184" y2="17.942" gradientUnits="userSpaceOnUse">
<stop stop-color="#306EBB"/>
<stop offset="0.205952" stop-color="#3070BC"/>
<stop offset="0.571429" stop-color="#3A96D2"/>
<stop offset="0.792857" stop-color="#42BCE9"/>
<stop offset="1" stop-color="#53CABB"/>
</linearGradient>
<linearGradient id="paint1_linear_47_379" x1="32.5775" y1="31.7612" x2="58.8479" y2="31.7612" gradientUnits="userSpaceOnUse">
<stop stop-color="#306EBB"/>
<stop offset="0.205952" stop-color="#3070BC"/>
<stop offset="0.571429" stop-color="#3A96D2"/>
<stop offset="0.792857" stop-color="#42BCE9"/>
<stop offset="1" stop-color="#53CABB"/>
</linearGradient>
<linearGradient id="paint2_linear_47_379" x1="14.3918" y1="13.7741" x2="14.3918" y2="49.828" gradientUnits="userSpaceOnUse">
<stop stop-color="#306EBB"/>
<stop offset="0.205952" stop-color="#3070BC"/>
<stop offset="0.571429" stop-color="#3A96D2"/>
<stop offset="0.792857" stop-color="#42BCE9"/>
<stop offset="1" stop-color="#53CABB"/>
</linearGradient>
<linearGradient id="paint3_linear_47_379" x1="26.1044" y1="46.0103" x2="26.1043" y2="64.1683" gradientUnits="userSpaceOnUse">
<stop stop-color="#306EBB"/>
<stop offset="0.205952" stop-color="#3070BC"/>
<stop offset="0.571429" stop-color="#3A96D2"/>
<stop offset="0.792857" stop-color="#42BCE9"/>
<stop offset="1" stop-color="#53CABB"/>
</linearGradient>
<clipPath id="clip0_47_379">
<rect width="259" height="66" fill="white"/>
</clipPath>
</defs>
</svg>
