<svg width="322" height="106" viewBox="0 0 322 106" fill="none" xmlns="http://www.w3.org/2000/svg">
<path d="M322 41.6361V80H19V10.2856C19 4.60542 22.7221 7.5221e-08 27.3139 7.5221e-08H288.349C306.934 -0.00136733 322 18.6405 322 41.6361Z" fill="url(#paint0_linear_2001_84)"/>
<path opacity="0.2" d="M240.012 34C238.048 37.7354 235.683 41.2256 232.963 44.3986C222.751 56.4115 207.667 64 190.841 64H11.0117C11.0117 63.9728 11.0203 63.927 11.0203 63.8735C11.109 63.2839 11.5268 61.2444 12.1755 58.2981H29.3299V34H240.012Z" fill="#232013"/>
<path d="M253 0C253 0.679133 252.991 1.35827 252.981 2.02365C252.972 2.80452 252.944 3.57301 252.916 4.34288C252.897 4.82955 252.879 5.30384 252.851 5.77813C252.786 7.12265 252.693 8.45479 252.571 9.77457C252.534 10.1581 252.506 10.5554 252.459 10.9404C252.44 11.1452 252.422 11.35 252.403 11.5425C252.356 11.9907 252.31 12.4141 252.254 12.8485C252.198 13.3737 252.133 13.8989 252.058 14.4116C251.984 15.0138 251.9 15.6159 251.806 16.2181C251.713 16.8711 251.61 17.5255 251.499 18.1648C251.387 18.8178 251.275 19.4584 251.154 20.099C251.033 20.7397 250.912 21.3803 250.781 22.021C250.25 24.5698 249.635 27.0677 248.935 29.5148C248.758 30.1169 248.581 30.7191 248.395 31.3089C247.566 33.9993 246.634 36.6251 245.6 39.1615C245.423 39.6097 245.237 40.0579 245.05 40.4937C244.677 41.3776 244.286 42.2492 243.895 43.1071C243.69 43.5429 243.485 43.9649 243.289 44.3884C243.084 44.8118 242.87 45.2338 242.665 45.6573C242.618 45.7466 242.572 45.8497 242.516 45.9391C242.171 46.6182 241.826 47.2974 241.463 47.9628C241.435 48.0136 241.398 48.0659 241.37 48.1291C240.968 48.8591 240.558 49.5891 240.139 50.3067C240.092 50.3837 240.055 50.4483 240.009 50.5239C239.776 50.9212 239.543 51.3185 239.301 51.7021C238.602 52.8679 237.866 54.0076 237.102 55.1101C236.086 56.5839 235.043 58.0054 233.953 59.376C233.571 59.8627 233.179 60.337 232.787 60.7975C232.638 60.9776 232.48 61.1564 232.331 61.3351C232.294 61.3859 232.256 61.4244 232.219 61.4767C231.958 61.7709 231.697 62.0665 231.436 62.3607C230.868 63.0013 230.29 63.6296 229.694 64.2441C229.107 64.8462 228.511 65.4484 227.905 66.0244C227.299 66.6142 226.684 67.1778 226.06 67.7277C225.436 68.279 224.801 68.8042 224.158 69.3293C223.888 69.5465 223.608 69.7775 223.329 69.9823C223.282 70.0208 223.245 70.0469 223.199 70.0854C222.873 70.3411 222.547 70.5845 222.221 70.8278C221.895 71.0711 221.569 71.3145 221.233 71.5454C220.907 71.7764 220.572 72.006 220.236 72.237C219.929 72.4418 219.612 72.6466 219.295 72.8638C219.239 72.89 219.193 72.9285 219.137 72.9532C218.149 73.5938 217.151 74.196 216.136 74.7335C215.857 74.8875 215.577 75.0415 215.297 75.1817C215.194 75.2326 215.092 75.2848 214.989 75.348C214.672 75.502 214.346 75.6684 214.029 75.8223C212.948 76.3599 211.849 76.8465 210.73 77.2823C205.567 79.3321 200.115 80.4333 194.487 80.4333H9.6452C6.97987 80.4333 4.56658 81.9194 2.82336 84.3142C1.95625 85.5062 1.24814 86.9277 0.764074 88.4908C0.326018 89.8875 0.0650082 91.4108 0 93C0 91.4878 0.0279879 89.9893 0.083995 88.4908C0.083995 88.4523 0.0929988 88.3877 0.0929988 88.3121C0.186011 87.479 0.624065 84.5974 1.30415 80.4347C4.38854 61.3736 12.3005 15.374 12.3005 15.374C12.9906 11.7487 14.3508 8.55928 16.177 6.04896C16.6801 5.35745 17.2112 4.71681 17.7802 4.12704C18.4883 3.39704 19.2434 2.74403 20.0355 2.20512C22.0768 0.783615 24.3591 0.00137401 26.7634 0.00137401L253 0Z" fill="url(#paint1_linear_2001_84)"/>
<path d="M267.24 60.176V18.032H270.552V60.176H267.24ZM269.304 56.576C266.84 56.576 264.696 56.128 262.872 55.232C261.048 54.336 259.64 53.088 258.648 51.488C257.656 49.888 257.16 48.032 257.16 45.92H261.384C261.384 47.232 261.688 48.448 262.296 49.568C262.904 50.656 263.784 51.536 264.936 52.208C266.12 52.848 267.576 53.168 269.304 53.168C270.808 53.168 272.088 52.928 273.144 52.448C274.232 51.936 275.048 51.248 275.592 50.384C276.168 49.52 276.456 48.544 276.456 47.456C276.456 46.144 276.168 45.088 275.592 44.288C275.048 43.456 274.296 42.784 273.336 42.272C272.376 41.76 271.256 41.312 269.976 40.928C268.728 40.512 267.416 40.08 266.04 39.632C263.384 38.736 261.432 37.616 260.184 36.272C258.936 34.928 258.312 33.184 258.312 31.04C258.312 29.216 258.728 27.616 259.56 26.24C260.424 24.864 261.64 23.792 263.208 23.024C264.808 22.224 266.696 21.824 268.872 21.824C271.016 21.824 272.872 22.224 274.44 23.024C276.04 23.824 277.288 24.928 278.184 26.336C279.08 27.712 279.528 29.312 279.528 31.136H275.304C275.304 30.208 275.064 29.296 274.584 28.4C274.104 27.504 273.368 26.768 272.376 26.192C271.416 25.584 270.2 25.28 268.728 25.28C267.512 25.248 266.424 25.456 265.464 25.904C264.536 26.32 263.8 26.928 263.256 27.728C262.744 28.528 262.488 29.504 262.488 30.656C262.488 31.744 262.712 32.624 263.16 33.296C263.64 33.968 264.312 34.544 265.176 35.024C266.072 35.472 267.112 35.888 268.296 36.272C269.48 36.656 270.792 37.088 272.232 37.568C273.864 38.112 275.304 38.784 276.552 39.584C277.832 40.352 278.824 41.344 279.528 42.56C280.264 43.776 280.632 45.328 280.632 47.216C280.632 48.816 280.2 50.336 279.336 51.776C278.504 53.184 277.256 54.336 275.592 55.232C273.928 56.128 271.832 56.576 269.304 56.576Z" fill="url(#paint2_linear_2001_84)"/>
<path d="M76.048 56.576C72.848 56.576 70.064 55.872 67.696 54.464C65.328 53.024 63.488 51.024 62.176 48.464C60.864 45.872 60.208 42.864 60.208 39.44C60.208 35.984 60.88 32.944 62.224 30.32C63.568 27.664 65.504 25.584 68.032 24.08C70.56 22.576 73.584 21.824 77.104 21.824C81.04 21.824 84.304 22.768 86.896 24.656C89.52 26.544 91.216 29.168 91.984 32.528H84.736C84.256 31.056 83.36 29.904 82.048 29.072C80.768 28.208 79.104 27.776 77.056 27.776C74.88 27.776 73.024 28.256 71.488 29.216C69.952 30.176 68.784 31.52 67.984 33.248C67.184 34.976 66.784 37.04 66.784 39.44C66.784 41.872 67.184 43.936 67.984 45.632C68.784 47.328 69.92 48.624 71.392 49.52C72.896 50.384 74.656 50.816 76.672 50.816C79.616 50.816 81.84 50.032 83.344 48.464C84.88 46.864 85.792 44.8 86.08 42.272H77.824V37.424H92.608V56H86.608L86.128 51.728C85.424 52.784 84.592 53.68 83.632 54.416C82.704 55.12 81.616 55.648 80.368 56C79.12 56.384 77.68 56.576 76.048 56.576ZM114.175 56.576C110.911 56.576 108.031 55.84 105.535 54.368C103.039 52.896 101.087 50.864 99.6794 48.272C98.2714 45.648 97.5674 42.624 97.5674 39.2C97.5674 35.776 98.2714 32.768 99.6794 30.176C101.087 27.552 103.039 25.504 105.535 24.032C108.031 22.56 110.911 21.824 114.175 21.824C117.471 21.824 120.367 22.56 122.863 24.032C125.359 25.504 127.295 27.552 128.671 30.176C130.079 32.768 130.783 35.776 130.783 39.2C130.783 42.624 130.079 45.648 128.671 48.272C127.295 50.864 125.359 52.896 122.863 54.368C120.367 55.84 117.471 56.576 114.175 56.576ZM114.175 50.768C116.223 50.768 117.983 50.304 119.455 49.376C120.959 48.416 122.127 47.072 122.959 45.344C123.791 43.616 124.207 41.568 124.207 39.2C124.207 36.8 123.791 34.752 122.959 33.056C122.127 31.328 120.959 30 119.455 29.072C117.983 28.144 116.223 27.68 114.175 27.68C112.159 27.68 110.399 28.144 108.895 29.072C107.391 30 106.223 31.328 105.391 33.056C104.559 34.752 104.143 36.8 104.143 39.2C104.143 41.568 104.559 43.616 105.391 45.344C106.223 47.072 107.391 48.416 108.895 49.376C110.399 50.304 112.159 50.768 114.175 50.768ZM136.312 56V22.4H142.792V50.96H157.528V56H136.312ZM163.078 56V22.4H174.31C178.214 22.4 181.43 23.104 183.958 24.512C186.518 25.888 188.406 27.84 189.622 30.368C190.87 32.864 191.494 35.808 191.494 39.2C191.494 42.592 190.87 45.552 189.622 48.08C188.406 50.576 186.534 52.528 184.006 53.936C181.478 55.312 178.246 56 174.31 56H163.078ZM169.558 50.432H173.974C176.726 50.432 178.886 49.984 180.454 49.088C182.054 48.192 183.19 46.912 183.862 45.248C184.534 43.552 184.87 41.536 184.87 39.2C184.87 36.832 184.534 34.816 183.862 33.152C183.19 31.456 182.054 30.16 180.454 29.264C178.886 28.368 176.726 27.92 173.974 27.92H169.558V50.432Z" fill="url(#paint3_linear_2001_84)"/>
<path d="M220.233 43.7273C220.233 45.2803 219.949 46.6155 219.381 47.733C218.813 48.8456 218.034 49.7027 217.044 50.304C216.059 50.9006 214.939 51.1989 213.685 51.1989C212.425 51.1989 211.301 50.9006 210.311 50.304C209.326 49.7027 208.55 48.8433 207.982 47.7259C207.413 46.6084 207.129 45.2756 207.129 43.7273C207.129 42.1742 207.413 40.8414 207.982 39.7287C208.55 38.6113 209.326 37.7543 210.311 37.1577C211.301 36.5563 212.425 36.2557 213.685 36.2557C214.939 36.2557 216.059 36.5563 217.044 37.1577C218.034 37.7543 218.813 38.6113 219.381 39.7287C219.949 40.8414 220.233 42.1742 220.233 43.7273ZM218.06 43.7273C218.06 42.5436 217.868 41.5469 217.484 40.7372C217.106 39.9228 216.585 39.3073 215.922 38.8906C215.264 38.4692 214.518 38.2585 213.685 38.2585C212.847 38.2585 212.098 38.4692 211.44 38.8906C210.782 39.3073 210.261 39.9228 209.878 40.7372C209.499 41.5469 209.31 42.5436 209.31 43.7273C209.31 44.911 209.499 45.91 209.878 46.7244C210.261 47.5341 210.782 48.1496 211.44 48.571C212.098 48.9877 212.847 49.196 213.685 49.196C214.518 49.196 215.264 48.9877 215.922 48.571C216.585 48.1496 217.106 47.5341 217.484 46.7244C217.868 45.91 218.06 44.911 218.06 43.7273ZM222.593 51V49.5369L230.242 38.3438H222.529V36.4545H232.926V37.9176L225.277 49.1108H232.99V51H222.593Z" fill="url(#paint4_linear_2001_84)"/>
<g opacity="0.4">
<path d="M216.127 54.3595C217.143 53.9585 218.14 53.5205 219.127 53.0645C218.139 53.5305 217.142 53.9685 216.127 54.3595Z" fill="#1F1E21"/>
</g>
<g clip-path="url(#clip0_2001_84)">
<path d="M59 80V106H9.59396C4.29655 106 0 100.175 0 92.9939C0 89.4032 1.07437 86.1642 2.81565 83.8036C4.547 81.4565 6.94626 80 9.59496 80H59Z" fill="#17160F"/>
</g>
<defs>
<linearGradient id="paint0_linear_2001_84" x1="170.5" y1="0" x2="170.5" y2="80" gradientUnits="userSpaceOnUse">
<stop stop-color="#29271E"/>
<stop offset="1" stop-color="#1D1C18"/>
</linearGradient>
<linearGradient id="paint1_linear_2001_84" x1="126.5" y1="0" x2="126.5" y2="93" gradientUnits="userSpaceOnUse">
<stop stop-color="#29271E"/>
<stop offset="1" stop-color="#1D1C18"/>
</linearGradient>
<linearGradient id="paint2_linear_2001_84" x1="256.2" y1="40.492" x2="282.3" y2="40.492" gradientUnits="userSpaceOnUse">
<stop stop-color="#FFEECC"/>
<stop offset="1" stop-color="#AD9515"/>
</linearGradient>
<linearGradient id="paint3_linear_2001_84" x1="63.8286" y1="40.492" x2="190.6" y2="40.492" gradientUnits="userSpaceOnUse">
<stop stop-color="#FFEECC"/>
<stop offset="1" stop-color="#AD9515"/>
</linearGradient>
<linearGradient id="paint4_linear_2001_84" x1="207.243" y1="44.1905" x2="234.275" y2="44.1905" gradientUnits="userSpaceOnUse">
<stop stop-color="#FFEECC"/>
<stop offset="1" stop-color="#AD9515"/>
</linearGradient>
<clipPath id="clip0_2001_84">
<rect width="26" height="26" fill="white" transform="translate(0 80)"/>
</clipPath>
</defs>
</svg>
