<svg width="322" height="106" viewBox="0 0 322 106" fill="none" xmlns="http://www.w3.org/2000/svg">
<path d="M322 41.6361V80H19V10.2856C19 4.60542 22.7221 7.5221e-08 27.3139 7.5221e-08H288.349C306.934 -0.00136733 322 18.6405 322 41.6361Z" fill="url(#paint0_linear_2001_83)"/>
<path opacity="0.2" d="M240.009 34C238.045 37.7354 235.68 41.2256 232.96 44.3986C222.748 56.4115 207.665 64 190.839 64H11.0117C11.0117 63.9728 11.0203 63.927 11.0203 63.8735C11.109 63.2839 11.5268 61.2444 12.1755 58.2981H29.3296V34H240.009Z" fill="#232013"/>
<path d="M252.997 0C252.997 0.679133 252.988 1.35827 252.978 2.02365C252.969 2.80452 252.941 3.57301 252.913 4.34288C252.894 4.82955 252.876 5.30384 252.848 5.77813C252.783 7.12265 252.69 8.45479 252.568 9.77457C252.531 10.1581 252.503 10.5554 252.456 10.9404C252.437 11.1452 252.419 11.35 252.4 11.5425C252.353 11.9907 252.307 12.4141 252.251 12.8485C252.195 13.3737 252.13 13.8989 252.055 14.4116C251.981 15.0138 251.897 15.6159 251.803 16.2181C251.71 16.8711 251.607 17.5255 251.496 18.1648C251.384 18.8178 251.271 19.4584 251.15 20.099C251.029 20.7397 250.908 21.3803 250.777 22.021C250.246 24.5698 249.631 27.0677 248.932 29.5148C248.755 30.1169 248.578 30.7191 248.392 31.3089C247.563 33.9993 246.631 36.6251 245.597 39.1615C245.42 39.6097 245.234 40.0579 245.047 40.4937C244.674 41.3776 244.283 42.2492 243.892 43.1071C243.687 43.5429 243.482 43.9649 243.286 44.3884C243.081 44.8118 242.867 45.2338 242.662 45.6573C242.615 45.7466 242.569 45.8497 242.513 45.9391C242.167 46.6182 241.822 47.2974 241.459 47.9628C241.431 48.0136 241.394 48.0659 241.366 48.1291C240.965 48.8591 240.555 49.5891 240.136 50.3067C240.089 50.3837 240.052 50.4483 240.006 50.5239C239.773 50.9212 239.54 51.3185 239.298 51.7021C238.599 52.8679 237.863 54.0076 237.099 55.1101C236.083 56.5839 235.04 58.0054 233.95 59.376C233.568 59.8627 233.176 60.337 232.784 60.7975C232.635 60.9776 232.477 61.1564 232.328 61.3351C232.291 61.3859 232.253 61.4244 232.216 61.4767C231.955 61.7709 231.694 62.0665 231.433 62.3607C230.865 63.0013 230.287 63.6296 229.691 64.2441C229.104 64.8462 228.508 65.4484 227.902 66.0244C227.296 66.6142 226.681 67.1778 226.057 67.7277C225.433 68.279 224.798 68.8042 224.155 69.3293C223.885 69.5465 223.605 69.7775 223.326 69.9823C223.279 70.0208 223.242 70.0469 223.196 70.0854C222.87 70.3411 222.544 70.5845 222.218 70.8278C221.892 71.0711 221.566 71.3145 221.23 71.5454C220.904 71.7764 220.569 72.006 220.233 72.237C219.926 72.4418 219.609 72.6466 219.292 72.8638C219.236 72.89 219.19 72.9285 219.134 72.9532C218.146 73.5938 217.149 74.196 216.134 74.7335C215.854 74.8875 215.574 75.0415 215.294 75.1817C215.191 75.2326 215.089 75.2848 214.986 75.348C214.669 75.502 214.343 75.6684 214.026 75.8223C212.945 76.3599 211.846 76.8465 210.727 77.2823C205.564 79.3321 200.113 80.4333 194.484 80.4333H9.64508C6.97977 80.4333 4.56652 81.9194 2.82332 84.3142C1.95622 85.5062 1.24812 86.9277 0.764064 88.4908C0.326014 89.8875 0.0650074 91.4108 0 93C0 91.4878 0.0279875 89.9893 0.0839939 88.4908C0.0839939 88.4523 0.0929976 88.3877 0.0929976 88.3121C0.186008 87.479 0.624056 84.5974 1.30413 80.4347C4.38848 61.3736 12.3004 15.374 12.3004 15.374C12.9905 11.7487 14.3506 8.55928 16.1768 6.04896C16.6799 5.35745 17.2109 4.71681 17.78 4.12704C18.4881 3.39704 19.2432 2.74403 20.0353 2.20512C22.0765 0.783615 24.3587 0.00137401 26.763 0.00137401L252.997 0Z" fill="url(#paint1_linear_2001_83)"/>
<path d="M276.24 60.176V18.032H279.552V60.176H276.24ZM278.304 56.576C275.84 56.576 273.696 56.128 271.872 55.232C270.048 54.336 268.64 53.088 267.648 51.488C266.656 49.888 266.16 48.032 266.16 45.92H270.384C270.384 47.232 270.688 48.448 271.296 49.568C271.904 50.656 272.784 51.536 273.936 52.208C275.12 52.848 276.576 53.168 278.304 53.168C279.808 53.168 281.088 52.928 282.144 52.448C283.232 51.936 284.048 51.248 284.592 50.384C285.168 49.52 285.456 48.544 285.456 47.456C285.456 46.144 285.168 45.088 284.592 44.288C284.048 43.456 283.296 42.784 282.336 42.272C281.376 41.76 280.256 41.312 278.976 40.928C277.728 40.512 276.416 40.08 275.04 39.632C272.384 38.736 270.432 37.616 269.184 36.272C267.936 34.928 267.312 33.184 267.312 31.04C267.312 29.216 267.728 27.616 268.56 26.24C269.424 24.864 270.64 23.792 272.208 23.024C273.808 22.224 275.696 21.824 277.872 21.824C280.016 21.824 281.872 22.224 283.44 23.024C285.04 23.824 286.288 24.928 287.184 26.336C288.08 27.712 288.528 29.312 288.528 31.136H284.304C284.304 30.208 284.064 29.296 283.584 28.4C283.104 27.504 282.368 26.768 281.376 26.192C280.416 25.584 279.2 25.28 277.728 25.28C276.512 25.248 275.424 25.456 274.464 25.904C273.536 26.32 272.8 26.928 272.256 27.728C271.744 28.528 271.488 29.504 271.488 30.656C271.488 31.744 271.712 32.624 272.16 33.296C272.64 33.968 273.312 34.544 274.176 35.024C275.072 35.472 276.112 35.888 277.296 36.272C278.48 36.656 279.792 37.088 281.232 37.568C282.864 38.112 284.304 38.784 285.552 39.584C286.832 40.352 287.824 41.344 288.528 42.56C289.264 43.776 289.632 45.328 289.632 47.216C289.632 48.816 289.2 50.336 288.336 51.776C287.504 53.184 286.256 54.336 284.592 55.232C282.928 56.128 280.832 56.576 278.304 56.576Z" fill="url(#paint2_linear_2001_83)"/>
<path d="M63.88 56.576C61.448 56.576 59.272 56.16 57.352 55.328C55.464 54.496 53.96 53.28 52.84 51.68C51.752 50.08 51.192 48.144 51.16 45.872H58.024C58.056 46.864 58.312 47.76 58.792 48.56C59.272 49.36 59.928 50 60.76 50.48C61.624 50.928 62.648 51.152 63.832 51.152C64.856 51.152 65.736 50.992 66.472 50.672C67.24 50.32 67.832 49.84 68.248 49.232C68.664 48.624 68.872 47.904 68.872 47.072C68.872 46.112 68.632 45.312 68.152 44.672C67.704 44.032 67.064 43.488 66.232 43.04C65.432 42.592 64.488 42.192 63.4 41.84C62.344 41.456 61.224 41.056 60.04 40.64C57.384 39.776 55.352 38.624 53.944 37.184C52.568 35.744 51.88 33.84 51.88 31.472C51.88 29.456 52.36 27.728 53.32 26.288C54.312 24.848 55.672 23.744 57.4 22.976C59.128 22.208 61.096 21.824 63.304 21.824C65.576 21.824 67.56 22.224 69.256 23.024C70.984 23.792 72.344 24.912 73.336 26.384C74.36 27.856 74.888 29.584 74.92 31.568H68.008C67.976 30.832 67.752 30.144 67.336 29.504C66.952 28.832 66.408 28.304 65.704 27.92C65 27.504 64.168 27.296 63.208 27.296C62.376 27.264 61.608 27.392 60.904 27.68C60.232 27.968 59.688 28.4 59.272 28.976C58.888 29.52 58.696 30.208 58.696 31.04C58.696 31.84 58.888 32.512 59.272 33.056C59.688 33.6 60.248 34.08 60.952 34.496C61.656 34.88 62.488 35.248 63.448 35.6C64.408 35.92 65.448 36.256 66.568 36.608C68.232 37.184 69.768 37.872 71.176 38.672C72.584 39.44 73.704 40.448 74.536 41.696C75.368 42.944 75.784 44.592 75.784 46.64C75.784 48.4 75.32 50.032 74.392 51.536C73.464 53.04 72.12 54.256 70.36 55.184C68.632 56.112 66.472 56.576 63.88 56.576ZM81.2808 56V22.4H87.7608V56H81.2808ZM94.3589 56V22.4H100.839V50.96H115.575V56H94.3589ZM125.007 56L112.767 22.4H119.679L128.991 49.376L138.351 22.4H145.215L132.975 56H125.007ZM149.25 56V22.4H171.33V27.632H155.73V36.416H169.89V41.456H155.73V50.768H171.33V56H149.25ZM177.234 56V22.4H189.762C192.482 22.4 194.722 22.864 196.482 23.792C198.242 24.72 199.554 25.968 200.418 27.536C201.282 29.072 201.714 30.784 201.714 32.672C201.714 34.464 201.298 36.144 200.466 37.712C199.634 39.248 198.322 40.496 196.53 41.456C194.77 42.384 192.498 42.848 189.714 42.848H183.714V56H177.234ZM194.658 56L187.746 41.216H194.754L202.05 56H194.658ZM183.714 38.144H189.378C191.33 38.144 192.77 37.664 193.698 36.704C194.626 35.744 195.09 34.48 195.09 32.912C195.09 31.344 194.626 30.112 193.698 29.216C192.802 28.288 191.362 27.824 189.378 27.824H183.714V38.144Z" fill="url(#paint3_linear_2001_83)"/>
<path d="M224.76 52.24C223.413 52.24 222.227 51.94 221.2 51.34C220.187 50.7267 219.387 49.88 218.8 48.8C218.227 47.7067 217.94 46.44 217.94 45C217.94 43.5733 218.227 42.32 218.8 41.24C219.387 40.1467 220.187 39.2933 221.2 38.68C222.227 38.0667 223.413 37.76 224.76 37.76C226.133 37.76 227.333 38.0667 228.36 38.68C229.387 39.2933 230.18 40.1467 230.74 41.24C231.313 42.32 231.6 43.5733 231.6 45C231.6 46.44 231.313 47.7067 230.74 48.8C230.18 49.88 229.387 50.7267 228.36 51.34C227.333 51.94 226.133 52.24 224.76 52.24ZM224.78 50.46C225.74 50.46 226.58 50.24 227.3 49.8C228.02 49.36 228.573 48.7333 228.96 47.92C229.36 47.1067 229.56 46.1333 229.56 45C229.56 43.8667 229.36 42.8933 228.96 42.08C228.573 41.2667 228.02 40.6467 227.3 40.22C226.58 39.78 225.74 39.56 224.78 39.56C223.82 39.56 222.98 39.78 222.26 40.22C221.54 40.6467 220.98 41.2667 220.58 42.08C220.18 42.8933 219.98 43.8667 219.98 45C219.98 46.1333 220.18 47.1067 220.58 47.92C220.98 48.7333 221.54 49.36 222.26 49.8C222.98 50.24 223.82 50.46 224.78 50.46ZM233.467 52V50.44L240.287 39.7H233.547V38H242.607V39.56L235.767 50.3H242.667V52H233.467Z" fill="url(#paint4_linear_2001_83)"/>
<g opacity="0.4">
<path d="M216.121 54.3614C217.137 53.9604 218.134 53.5224 219.121 53.0664C218.133 53.5324 217.136 53.9704 216.121 54.3614Z" fill="#1F1E21"/>
</g>
<g clip-path="url(#clip0_2001_83)">
<path d="M59 80V106H9.59396C4.29655 106 0 100.175 0 92.9939C0 89.4032 1.07437 86.1642 2.81565 83.8036C4.547 81.4565 6.94626 80 9.59496 80H59Z" fill="#1E1D1D"/>
</g>
<defs>
<linearGradient id="paint0_linear_2001_83" x1="170.5" y1="0" x2="170.5" y2="80" gradientUnits="userSpaceOnUse">
<stop stop-color="#191919"/>
<stop offset="1" stop-color="#292929"/>
</linearGradient>
<linearGradient id="paint1_linear_2001_83" x1="126.498" y1="0" x2="126.498" y2="93" gradientUnits="userSpaceOnUse">
<stop stop-color="#191919"/>
<stop offset="1" stop-color="#292929"/>
</linearGradient>
<linearGradient id="paint2_linear_2001_83" x1="265.2" y1="40.492" x2="291.3" y2="40.492" gradientUnits="userSpaceOnUse">
<stop stop-color="#D0D0D0"/>
<stop offset="1" stop-color="#8A8A8A"/>
</linearGradient>
<linearGradient id="paint3_linear_2001_83" x1="55.6857" y1="40.492" x2="201.1" y2="40.492" gradientUnits="userSpaceOnUse">
<stop stop-color="#D0D0D0"/>
<stop offset="1" stop-color="#8A8A8A"/>
</linearGradient>
<linearGradient id="paint4_linear_2001_83" x1="218.157" y1="45.2063" x2="243.325" y2="45.2063" gradientUnits="userSpaceOnUse">
<stop stop-color="#D0D0D0"/>
<stop offset="1" stop-color="#8A8A8A"/>
</linearGradient>
<clipPath id="clip0_2001_83">
<rect width="26" height="26" fill="white" transform="translate(0 80)"/>
</clipPath>
</defs>
</svg>
